<svg width="384" height="485" viewBox="0 0 384 485" fill="none" xmlns="http://www.w3.org/2000/svg">
<g clip-path="url(#clip0_793_920)">
<g clip-path="url(#clip1_793_920)">
<path d="M69.2276 13.9693H65.2188V0.351562H92.4543V13.9693H86.7299L90.8454 60.4227L99.3165 0.351562H123.005L131.477 60.4227L135.592 13.9693H129.983V0.351562H154.81V13.9693H150.801L142.108 79.3027H118.881L110.41 17.9693L102.054 79.3027H78.0276L69.2188 13.9693H69.2276Z" fill="white"/>
<path d="M170.143 65.6849H175.636V13.9693H170.143V0.351562H199.325V13.9693H195.209V32.1649H209.511V13.9693H205.396V0.351562H234.569V13.9693H229.076V65.6849H234.569V79.3027H205.396V65.6849H209.511V49.6671H195.209V65.6849H199.325V79.3027H170.143V65.6849Z" fill="white"/>
<path d="M249.894 65.6849H253.325L264.08 13.9693H257.671V0.351562H305.04V13.9693H298.516L309.271 65.6849H312.703V79.3027H285.583V65.8005H289.698L288.214 57.1071H272.311L270.827 65.8005H275.405V79.3027H249.885V65.6849H249.894ZM274.605 43.6049H285.929L280.783 13.2849H279.751L274.605 43.6049Z" fill="white"/>
<path d="M335.947 65.6849H344.187V14.0849H338.809V28.156H324.045V0.351562H384V28.156H369.129V14.0849H363.752V65.6938H371.992V79.3116H335.947V65.6938V65.6849Z" fill="white"/>
<path d="M4.00889 115.356H0V101.738H27.2356V115.356H21.5111L25.6267 161.809L34.0978 101.738H57.7867L66.2578 161.809L70.3733 115.356H64.7644V101.738H89.5911V115.356H85.5822L76.8889 180.689H53.6622L45.1911 119.356L36.8356 180.689H12.8178L4.00889 115.356Z" fill="white"/>
<path d="M106.525 169.712V112.725L117.512 101.738H149.779L160.765 112.725V169.712L149.779 180.698H117.512L106.525 169.712ZM138.108 165.365L141.308 162.272V120.165L138.108 117.072H129.183L126.09 120.165V162.272L129.183 165.365H138.108Z" fill="white"/>
<path d="M182.159 169.712V115.366H177.697V101.748H206.533V115.366H201.724V161.597L204.817 164.69H212.479L215.573 161.597V115.366H210.879V101.748H239.715V115.366H235.137V169.712L224.151 180.699H193.146L182.159 169.712Z" fill="white"/>
<path d="M254.933 167.072H260.426V115.356H254.933V101.738H287.999V115.356H279.99V167.072H289.715V149.792H305.617V180.689H254.924V167.072H254.933Z" fill="white"/>
<path d="M320.844 167.072H326.337V115.356H320.844V101.738H368.559L379.546 112.725V169.712L368.559 180.698H320.844V167.081V167.072ZM356.888 165.587L359.982 162.387V120.049L356.888 116.849H345.902V165.596H356.888V165.587Z" fill="white"/>
<path d="M184.222 268.468H192.578V257.597L175.875 216.753H171.76V203.135H201.049V216.753H195.671L203.449 239.526L211.573 216.753H205.849V203.135H232.853V216.753H228.738L212.035 257.597V268.468H220.275V282.086H184.231V268.468H184.222Z" fill="white"/>
<path d="M248.641 271.098V214.112L259.627 203.125H291.894L302.881 214.112V271.098L291.894 282.085H259.627L248.641 271.098ZM280.223 266.752L283.423 263.658V221.552L280.223 218.458H271.298L268.205 221.552V263.658L271.298 266.752H280.223Z" fill="white"/>
<path d="M324.275 271.099V216.753H319.812V203.135H348.648V216.753H343.839V262.984L346.932 266.077H354.595L357.688 262.984V216.753H352.995V203.135H381.83V216.753H377.252V271.099L366.266 282.086H335.261L324.275 271.099Z" fill="white"/>
<path d="M56.0703 369.853H61.5636V318.137H56.0703V304.52H108.364V328.315H92.1148V318.128H81.1281V337.355H102.07V353.604H81.1281V369.853H89.4836V383.471H56.0703V369.853Z" fill="white"/>
<path d="M123.582 369.853H129.76V318.137H123.582V304.52H155.618V318.137H149.324V369.853H155.618V383.471H123.582V369.853Z" fill="white"/>
<path d="M173.004 372.485V315.498L183.991 304.512H216.719L227.359 315.267V329.916H207.911V322.361L205.279 319.845H195.671L192.577 322.938V365.73L195.671 368.823H205.279L207.911 366.192V354.867H198.071V339.418H227.359V372.716L216.719 383.472H183.991L173.004 372.485Z" fill="white"/>
<path d="M244.293 369.853H249.786V318.137H244.293V304.52H273.475V318.137H269.36V336.333H283.662V318.137H279.546V304.52H308.72V318.137H303.226V369.853H308.72V383.471H279.546V369.853H283.662V353.835H269.36V369.853H273.475V383.471H244.293V369.853Z" fill="white"/>
<path d="M335.947 369.854H344.187V318.245H338.809V332.316H324.045V304.512H384V332.316H369.129V318.245H363.752V369.854H371.992V383.472H335.947V369.854Z" fill="white"/>
<path d="M112.133 471.24H117.626V419.524H112.133V405.906H164.426V429.702H148.177V419.515H137.191V438.742H158.133V454.991H137.191V471.24H145.546V484.857H112.133V471.24Z" fill="white"/>
<path d="M181.244 473.872V416.885L192.231 405.898H224.497L235.484 416.885V473.872L224.497 484.858H192.231L181.244 473.872ZM212.826 469.525L216.026 466.432V424.325L212.826 421.232H203.902L200.809 424.325V466.432L203.902 469.525H212.826Z" fill="white"/>
<path d="M252.987 471.24H258.481V419.524H252.987V405.906H301.156L311.681 416.431V438.511L304.587 445.72L311.681 452.928V471.24H315.343V484.857H299.094L292.232 477.995V456.368L289.254 453.506H278.036V471.24H283.067V484.857H252.979V471.24H252.987ZM289.263 439.773L292.241 436.911V422.493L289.263 419.515H278.045V439.764H289.263V439.773Z" fill="white"/>
<path d="M341.325 445.497L350.018 436.92H360.089L362.036 434.857V423.755L359.289 421.008H350.596L348.08 423.64V431.08H328.516V416.431L339.04 405.906H370.853L381.609 416.662V444.466L372.569 453.506H362.96L360.898 455.453V462.546H341.333V445.497H341.325ZM341.325 468.955H360.889V484.857H341.325V468.955Z" fill="white"/>
<path d="M130.898 279.979C130.898 278.877 131.787 277.961 132.916 277.961C134.045 277.961 134.925 278.868 134.925 279.961C134.925 281.063 134.036 281.988 132.907 281.988C131.778 281.988 130.898 281.081 130.898 279.988V279.979ZM134.463 279.97C134.463 279.099 133.796 278.405 132.916 278.405C132.036 278.405 131.361 279.108 131.361 279.97C131.361 280.841 132.027 281.534 132.907 281.534C133.787 281.534 134.463 280.832 134.463 279.97ZM132.081 278.841H133.032C133.316 278.841 133.547 278.921 133.69 279.072C133.805 279.188 133.867 279.348 133.867 279.543C133.867 279.899 133.681 280.112 133.405 280.219L133.93 280.983H133.378L132.925 280.299H132.552V280.983H132.081V278.841ZM133.023 279.881C133.263 279.881 133.387 279.757 133.387 279.579C133.387 279.365 133.245 279.259 133.005 279.259H132.543V279.89H133.014L133.023 279.881Z" fill="#CA9600"/>
<path d="M133.307 232.085V253.018L131.698 254.627H126.871V230.494H131.698L133.307 232.094V232.085ZM115.609 230.485V254.618L103.182 230.485H115.609ZM72.1601 254.618V230.485H78.5956V254.618H72.1601ZM89.8579 254.618V230.485L102.311 254.618H89.8579ZM136.365 219.214H126.871V214.387H133.307V203.125H109.173V214.387H115.609V219.214H97.3601L89.049 203.125H72.169V214.387H78.6045V219.214H56.0801V230.476H60.9067V254.609H56.0801V265.872H78.6045V270.698H72.169V281.961H96.3023V270.698H89.8667V265.872H108.133L116.436 281.961H126.88V265.872H136.365L144.569 257.667V227.401L136.373 219.205L136.365 219.214Z" fill="#AE9142"/>
</g>
</g>
<defs>
<clipPath id="clip0_793_920">
<rect width="384" height="484.75" fill="white" transform="translate(0 0.230469)"/>
</clipPath>
<clipPath id="clip1_793_920">
<rect width="384" height="484.507" fill="white" transform="translate(0 0.351562)"/>
</clipPath>
</defs>
</svg>
