<svg width="18" height="18" viewBox="0 0 18 18" fill="none" xmlns="http://www.w3.org/2000/svg">
<g clip-path="url(#clip0_793_1916)">
<path d="M15.2501 10.7727V15.2508C15.2501 15.6664 14.9157 16.0008 14.5001 16.0008H10.8751C10.6688 16.0008 10.5001 15.832 10.5001 15.6258V12.1258C10.5001 11.9195 10.3314 11.7508 10.1251 11.7508H7.8751C7.66885 11.7508 7.5001 11.9195 7.5001 12.1258V15.6258C7.5001 15.832 7.33135 16.0008 7.1251 16.0008H3.5001C3.08448 16.0008 2.7501 15.6664 2.7501 15.2508V10.7727C2.7501 10.6602 2.8001 10.5539 2.8876 10.482L8.7626 5.64453C8.9001 5.53203 9.1001 5.53203 9.24073 5.64453L15.1157 10.482C15.2001 10.5539 15.2501 10.6602 15.2501 10.7727ZM17.8626 8.86953L15.2501 6.71641V2.38828C15.2501 2.18203 15.0814 2.01328 14.8751 2.01328H13.1251C12.9188 2.01328 12.7501 2.18203 12.7501 2.38828V4.65703L9.95323 2.35391C9.4001 1.89766 8.6001 1.89766 8.04698 2.35391L0.1376 8.86953C-0.0217747 9.00078 -0.0436497 9.23828 0.0876003 9.39766L0.884475 10.3664C1.01573 10.5258 1.25323 10.5477 1.4126 10.4164L8.7626 4.36328C8.9001 4.25078 9.1001 4.25078 9.24073 4.36328L16.5907 10.4164C16.7501 10.5477 16.9876 10.5258 17.1189 10.3664L17.9157 9.39766C18.047 9.23516 18.022 9.00078 17.8626 8.86953Z" fill="white"/>
</g>
<defs>
<clipPath id="clip0_793_1916">
<rect width="18" height="18" fill="white"/>
</clipPath>
</defs>
</svg>
