<svg width="16" height="14" viewBox="0 0 16 14" fill="none" xmlns="http://www.w3.org/2000/svg">
<path d="M15.0305 1.49055V4.61555C15.0305 5.1393 14.3968 5.3968 14.0305 5.0293L13.1593 4.15805L7.21305 10.103C6.9843 10.3318 6.61305 10.3318 6.3843 10.103L5.8318 9.55055C5.60305 9.3218 5.60305 8.95055 5.8318 8.7218L11.7768 2.7768L10.9055 1.9043C10.538 1.5368 10.798 0.904297 11.3193 0.904297H14.4443C14.768 0.904297 15.0305 1.1668 15.0305 1.49055ZM10.9055 7.51555L10.5155 7.90555C10.4055 8.01555 10.3443 8.1643 10.3443 8.3193V11.8418H2.5318V4.0293H8.9768C9.1318 4.0293 9.2818 3.96805 9.39055 3.85805L9.78055 3.46805C10.1493 3.0993 9.88805 2.46805 9.3668 2.46805H2.1393C1.4918 2.46805 0.966797 2.99305 0.966797 3.64055V12.2343C0.966797 12.8818 1.4918 13.4068 2.1393 13.4068H10.733C11.3805 13.4068 11.9055 12.8818 11.9055 12.2343V7.9293C11.9055 7.40805 11.2743 7.1468 10.9055 7.51555Z" fill="#AE9142"/>
</svg>
