<svg width="200" height="48" viewBox="0 0 200 48" fill="none" xmlns="http://www.w3.org/2000/svg">
<g clip-path="url(#clip0_793_1795)">
<path d="M6.17554 6.49647L3.88379 6.04361L5.40705 7.78644L3.88379 9.52927L6.17554 9.07641L6.92345 11.2652L7.67136 9.07641L9.94252 9.52927L8.4124 7.78644L9.94252 6.04361L7.67136 6.49647L6.92345 4.30078L6.17554 6.49647ZM6.92345 5.975L7.30769 7.11401L8.48788 6.88072L7.6988 7.78644L8.48788 8.69216L7.30769 8.45887L6.92345 9.59102C6.76563 9.14502 6.53234 8.45887 6.53234 8.45887L5.35902 8.69216L6.1481 7.78644L5.33843 6.88072L6.51176 7.11401L6.90286 5.975M11.7334 22.4152C11.8638 22.1202 11.9461 21.9281 12.0284 21.784C12.0468 21.7518 12.0725 21.7244 12.1035 21.7041C12.1346 21.6838 12.17 21.6712 12.2068 21.6673H12.2754V21.585H11.6648C11.658 21.5951 11.6544 21.6071 11.6544 21.6193C11.6544 21.6315 11.658 21.6434 11.6648 21.6536H11.7471C11.8294 21.6536 11.8432 21.7016 11.7951 21.8183C11.6442 22.2162 11.4726 22.6211 11.3148 22.9847L11.157 22.6142L10.9512 22.0927C10.8925 21.9697 10.8465 21.8409 10.8139 21.7085C10.8139 21.7085 10.8139 21.6742 10.8963 21.6536H10.9786C10.9845 21.6485 10.9891 21.6421 10.9923 21.635C10.9955 21.6279 10.9972 21.6202 10.9972 21.6124C10.9972 21.6046 10.9955 21.5969 10.9923 21.5898C10.9891 21.5827 10.9845 21.5764 10.9786 21.5713H10.2513V21.6467H10.3199C10.4366 21.6467 10.464 21.7154 10.5395 21.9075L11.0472 23.1357C11.0953 23.2523 11.1433 23.3964 11.1776 23.5131H11.2805C11.3286 23.369 11.4658 23.0259 11.5824 22.7583L11.7334 22.4152ZM13.0371 23.0808C13.0371 23.3896 13.0371 23.3964 13.1949 23.4102H13.2566C13.2668 23.4215 13.2724 23.4361 13.2724 23.4513C13.2724 23.4665 13.2668 23.4812 13.2566 23.4925H12.4744C12.4643 23.4812 12.4587 23.4665 12.4587 23.4513C12.4587 23.4361 12.4643 23.4215 12.4744 23.4102H12.5362C12.6734 23.4102 12.694 23.4102 12.694 23.0808V21.9967C12.694 21.6879 12.694 21.6742 12.5362 21.6605H12.4744V21.5781H13.2361V21.6605H13.1743C13.0439 21.6605 13.0165 21.6605 13.0165 21.9967L13.0371 23.0808ZM14.1967 21.8183C14.1967 21.7016 14.1967 21.6948 14.1212 21.6948H13.9634C13.7026 21.6948 13.6272 21.6948 13.5174 21.9624C13.5044 21.9718 13.4888 21.977 13.4728 21.977C13.4567 21.977 13.4411 21.9718 13.4282 21.9624C13.4762 21.8046 13.5174 21.6262 13.538 21.5164H13.5997C13.5997 21.5918 13.6546 21.5987 13.8467 21.5987H14.9995C15.1367 21.5987 15.1779 21.5987 15.2122 21.5164C15.2254 21.511 15.2401 21.511 15.2534 21.5164C15.2184 21.6694 15.2023 21.8261 15.2053 21.983C15.194 21.9931 15.1793 21.9987 15.1642 21.9987C15.149 21.9987 15.1343 21.9931 15.123 21.983C15.0818 21.7565 15.0338 21.7016 14.7319 21.7016H14.5672C14.4917 21.7016 14.4917 21.7016 14.4917 21.8251V23.0877C14.4917 23.3964 14.4917 23.4033 14.6495 23.417H14.7525C14.7626 23.4283 14.7682 23.443 14.7682 23.4582C14.7682 23.4734 14.7626 23.488 14.7525 23.4994H13.9291C13.9232 23.4942 13.9186 23.4879 13.9154 23.4808C13.9121 23.4737 13.9105 23.466 13.9105 23.4582C13.9105 23.4504 13.9121 23.4427 13.9154 23.4356C13.9186 23.4285 13.9232 23.4222 13.9291 23.417H14.0457C14.1761 23.417 14.2035 23.417 14.2035 23.0877L14.1967 21.8183ZM16.111 22.8269C16.2002 22.8269 16.2208 22.8269 16.2483 22.9093L16.3718 23.2592C16.4061 23.3827 16.3718 23.4033 16.2963 23.4102H16.2277C16.2176 23.4215 16.212 23.4361 16.212 23.4513C16.212 23.4665 16.2176 23.4812 16.2277 23.4925H16.955C16.9651 23.4812 16.9707 23.4665 16.9707 23.4513C16.9707 23.4361 16.9651 23.4215 16.955 23.4102H16.9138C16.7629 23.4102 16.7492 23.3621 16.6805 23.17L16.262 21.9486C16.214 21.8183 16.1797 21.6879 16.1316 21.5507C16.1241 21.547 16.1159 21.5451 16.1076 21.5451C16.0993 21.5451 16.0911 21.547 16.0836 21.5507C16.0268 21.6121 15.9563 21.6591 15.8778 21.6879C15.8772 21.7622 15.8583 21.8353 15.8229 21.9006L15.4249 22.9367C15.3631 23.0945 15.3151 23.218 15.2808 23.2935C15.2465 23.369 15.2122 23.417 15.123 23.4307H15.0338C15.0237 23.4421 15.0181 23.4567 15.0181 23.4719C15.0181 23.4871 15.0237 23.5018 15.0338 23.5131H15.6307V23.4307H15.5415C15.4318 23.4307 15.4249 23.4307 15.4798 23.2318L15.5827 22.9298C15.5827 22.8475 15.6239 22.8475 15.6994 22.8475L16.111 22.8269ZM15.7817 22.6966C15.7131 22.6966 15.6856 22.6966 15.7337 22.573L15.8572 22.23L15.9395 21.9967C15.9746 22.0715 16.0021 22.1497 16.0218 22.23L16.1454 22.5799C16.1454 22.676 16.1454 22.6966 16.0767 22.6966H15.7817ZM11.3354 25.1942V24.9746C11.4022 24.9446 11.475 24.9305 11.5481 24.9334C11.9873 24.9334 12.296 25.2147 12.296 25.7911C12.296 26.3675 12.0833 26.6488 11.6099 26.6488C11.3286 26.6488 11.308 26.4978 11.308 26.2165L11.3354 25.1942ZM11.0266 26.3263C11.0266 26.6351 11.0266 26.6488 10.8826 26.6625H10.8208V26.7449H11.5413C11.779 26.7622 12.0168 26.7123 12.2274 26.6008C12.3692 26.5149 12.4854 26.3926 12.5639 26.2466C12.6423 26.1006 12.6802 25.9362 12.6734 25.7705C12.6848 25.587 12.6387 25.4044 12.5416 25.2482C12.4444 25.0921 12.301 24.97 12.1314 24.8991C11.9331 24.82 11.7201 24.7849 11.507 24.7962C11.2784 24.7836 11.0493 24.7836 10.8208 24.7962C10.8128 24.8084 10.8086 24.8227 10.8086 24.8374C10.8086 24.852 10.8128 24.8663 10.8208 24.8785H10.8757C11.0061 24.8785 11.0061 24.9334 11.0061 25.2147L11.0266 26.3263ZM13.0371 25.2422C13.0371 24.9403 13.0371 24.9266 12.8793 24.906H12.8312C12.8254 24.9008 12.8207 24.8945 12.8175 24.8874C12.8143 24.8803 12.8126 24.8726 12.8126 24.8648C12.8126 24.857 12.8143 24.8493 12.8175 24.8422C12.8207 24.8351 12.8254 24.8288 12.8312 24.8236H13.5723C13.5824 24.835 13.588 24.8496 13.588 24.8648C13.588 24.88 13.5824 24.8946 13.5723 24.906H13.5037C13.3733 24.906 13.3527 24.906 13.3527 25.2422V25.9283C13.3527 26.3194 13.4694 26.6625 13.8605 26.6625C14.2516 26.6625 14.3819 26.3743 14.3819 25.9352V25.5647C14.3982 25.3731 14.3796 25.1801 14.327 24.9952C14.3108 24.9737 14.2901 24.9558 14.2665 24.9428C14.2428 24.9298 14.2167 24.9219 14.1898 24.9197H14.1349V24.8374H14.7456C14.7514 24.8425 14.7561 24.8488 14.7593 24.8559C14.7625 24.863 14.7642 24.8707 14.7642 24.8785C14.7642 24.8863 14.7625 24.894 14.7593 24.9011C14.7561 24.9082 14.7514 24.9145 14.7456 24.9197H14.6838C14.6358 24.9197 14.5809 24.9197 14.5603 24.9883C14.5271 25.1762 14.5156 25.3673 14.526 25.5578V25.9078C14.5523 26.1526 14.4835 26.3983 14.3339 26.5939C14.2646 26.6691 14.1793 26.7279 14.0843 26.7658C13.9893 26.8038 13.8871 26.8201 13.785 26.8135C13.6803 26.8238 13.5746 26.8127 13.4743 26.7808C13.374 26.749 13.2813 26.697 13.2018 26.6282C13.1304 26.542 13.0772 26.4422 13.0453 26.3349C13.0135 26.2276 13.0037 26.115 13.0165 26.0038L13.0371 25.2422ZM15.5964 25.2422C15.5964 24.9403 15.5964 24.9334 15.7542 24.9128H15.816V24.8236H15.0406V24.9128H15.0955C15.2328 24.9128 15.2534 24.9128 15.2534 25.2422V26.3263C15.2534 26.6282 15.2534 26.6419 15.0955 26.6557H15.0132V26.738H16.3855C16.437 26.6023 16.476 26.4622 16.5021 26.3194C16.497 26.3136 16.4907 26.3089 16.4836 26.3057C16.4765 26.3025 16.4688 26.3009 16.461 26.3009C16.4532 26.3009 16.4455 26.3025 16.4384 26.3057C16.4313 26.3089 16.425 26.3136 16.4198 26.3194C16.2894 26.6145 16.2414 26.6282 15.9258 26.6282C15.6102 26.6282 15.6582 26.6282 15.6239 26.5665C15.5785 26.4728 15.5618 26.3677 15.5758 26.2646L15.5964 25.2422Z" fill="#555555"/>
<path d="M28.6399 19.2313V17.7012C26.8951 18.2989 25.0256 18.436 23.2124 18.0991C19.9531 17.6326 18.6014 18.5246 18.6014 18.5246C18.6014 18.5246 17.2291 17.6326 13.9836 18.0991C12.1704 18.436 10.3009 18.2989 8.55614 17.7012V19.2313H7.64355V30.8341H17.1125C17.3034 31.0337 17.5355 31.1892 17.7926 31.29C18.0498 31.3907 18.3258 31.4342 18.6014 31.4174C18.876 31.4336 19.1508 31.3899 19.4068 31.2891C19.6627 31.1884 19.8937 31.0332 20.0835 30.8341H29.5524V19.2313H28.6399ZM18.2035 29.6677C18.2035 29.6677 17.0507 28.8855 13.7915 29.304C10.5323 29.7226 9.35894 28.9678 9.35894 28.9678V18.7784C9.35894 18.7784 10.7312 19.3205 13.9973 18.9019C17.2634 18.4834 18.2035 19.2656 18.2035 19.2656V29.6677ZM27.8508 28.9815C27.8508 28.9815 26.6706 29.7294 23.4114 29.3109C20.1521 28.8923 19.0063 29.6745 19.0063 29.6745V19.2725C19.0063 19.2725 19.9531 18.4902 23.2124 18.9088C26.4716 19.3274 27.8508 18.7784 27.8508 18.7784V28.9815Z" fill="#555555"/>
<path d="M21.2709 22.086C21.2664 22.0918 21.2606 22.0964 21.2541 22.0995C21.2476 22.1027 21.2404 22.1044 21.2331 22.1044C21.2259 22.1044 21.2187 22.1027 21.2122 22.0995C21.2056 22.0964 21.1999 22.0918 21.1954 22.086C21.1771 21.9709 21.1176 21.8664 21.028 21.7919C20.9384 21.7175 20.8247 21.6781 20.7082 21.6812C20.3857 21.6812 20.0701 21.9351 20.0701 22.4977C20.0701 23.0604 20.3995 23.376 20.7219 23.376C20.8425 23.3731 20.9589 23.3315 21.054 23.2573C21.1492 23.1832 21.218 23.0805 21.2503 22.9643C21.2548 22.9586 21.2605 22.954 21.267 22.9508C21.2736 22.9476 21.2808 22.946 21.288 22.946C21.2953 22.946 21.3025 22.9476 21.309 22.9508C21.3155 22.954 21.3213 22.9586 21.3258 22.9643C21.3101 23.1101 21.2682 23.2519 21.2023 23.3829H21.1131C20.987 23.4257 20.8551 23.4488 20.7219 23.4515C20.4949 23.46 20.2711 23.395 20.0838 23.2662C19.9658 23.1788 19.8715 23.0635 19.8092 22.9305C19.7469 22.7975 19.7187 22.6512 19.727 22.5046C19.7229 22.3666 19.7491 22.2294 19.8036 22.1026C19.8581 21.9758 19.9397 21.8624 20.0427 21.7704C20.2389 21.6182 20.4804 21.536 20.7288 21.5371C20.875 21.5388 21.0203 21.5596 21.1611 21.5989H21.2297C21.2297 21.6675 21.2297 21.8253 21.264 22.0311M21.7649 21.9968C21.7649 21.6881 21.7649 21.6744 21.6071 21.6538H21.5591V21.5714H22.801C22.801 21.6126 22.801 21.8459 22.849 21.9694C22.8433 21.9754 22.8363 21.9802 22.8287 21.9835C22.821 21.9868 22.8128 21.9884 22.8044 21.9884C22.7961 21.9884 22.7878 21.9868 22.7802 21.9835C22.7725 21.9802 22.7656 21.9754 22.7598 21.9694C22.7118 21.7979 22.6706 21.7292 22.5814 21.7018C22.5061 21.6947 22.4303 21.6947 22.355 21.7018H22.204C22.0874 21.7018 22.0874 21.7018 22.0874 21.8733V22.4017C22.0874 22.4772 22.0874 22.4772 22.1491 22.4772H22.2452C22.4922 22.4772 22.5403 22.4771 22.5608 22.3468V22.2439H22.65C22.6638 22.2439 22.65 22.4223 22.65 22.5389V22.8408C22.65 22.93 22.5814 22.8408 22.5608 22.8408V22.7242C22.5608 22.6007 22.4922 22.5938 22.2452 22.5938H22.1491C22.0874 22.5938 22.0874 22.5938 22.0874 22.6693V23.0261C22.0874 23.177 22.0874 23.2799 22.1354 23.328C22.1835 23.376 22.1766 23.3966 22.4099 23.3966C22.7735 23.3966 22.7941 23.3143 22.8902 23.081C22.896 23.0749 22.9029 23.0702 22.9105 23.0669C22.9182 23.0636 22.9265 23.0619 22.9348 23.0619C22.9431 23.0619 22.9514 23.0636 22.959 23.0669C22.9667 23.0702 22.9736 23.0749 22.9794 23.081C22.9564 23.2267 22.9173 23.3693 22.8627 23.5064H21.4904C21.4846 23.5012 21.4799 23.4949 21.4767 23.4878C21.4735 23.4807 21.4719 23.473 21.4719 23.4652C21.4719 23.4574 21.4735 23.4497 21.4767 23.4426C21.4799 23.4355 21.4846 23.4292 21.4904 23.424H21.5934C21.7306 23.424 21.7512 23.424 21.7512 23.0878L21.7649 21.9968ZM23.7273 21.942V21.7224C23.7273 21.7018 23.7273 21.6881 23.8439 21.6881C24.2968 21.6881 24.6056 21.9625 24.6056 22.5389C24.6056 23.1153 24.386 23.3966 23.9194 23.3966C23.6312 23.3966 23.7067 23.2456 23.7067 22.9643L23.7273 21.942ZM23.4185 23.0741C23.4185 23.3897 23.4185 23.3966 23.2676 23.4103H23.2058V23.4927H23.892C24.1064 23.5033 24.3198 23.4559 24.5095 23.3554C24.659 23.2732 24.7834 23.1519 24.8692 23.0044C24.955 22.857 24.9991 22.6889 24.9967 22.5183C25.0075 22.334 24.9604 22.1508 24.862 21.9946C24.7636 21.8383 24.6187 21.7167 24.4478 21.6469C24.2599 21.574 24.0589 21.5413 23.8577 21.5508H23.2333C23.2231 21.5622 23.2175 21.5768 23.2175 21.592C23.2175 21.6072 23.2231 21.6219 23.2333 21.6332H23.2882C23.4185 21.6332 23.4185 21.6812 23.4185 21.9625V23.0741ZM26.1631 21.6538C26.5886 21.6538 26.7601 22.1615 26.7601 22.6007C26.7601 23.1839 26.5199 23.4309 26.218 23.4309C25.772 23.4309 25.6142 22.8888 25.6142 22.484C25.6142 21.8665 25.9024 21.6538 26.1631 21.6538ZM26.1631 21.5371C26.0324 21.5386 25.9034 21.5669 25.7841 21.6203C25.6648 21.6737 25.5578 21.7511 25.4696 21.8476C25.3815 21.9441 25.3141 22.0577 25.2717 22.1814C25.2293 22.305 25.2128 22.4361 25.2231 22.5664C25.2155 22.6937 25.2343 22.8212 25.2784 22.941C25.3224 23.0607 25.3906 23.1701 25.4789 23.2622C25.5672 23.3543 25.6735 23.4272 25.7912 23.4763C25.909 23.5254 26.0356 23.5497 26.1631 23.5475C26.2908 23.546 26.4168 23.5184 26.5335 23.4665C26.6501 23.4146 26.755 23.3395 26.8416 23.2458C26.9283 23.152 26.995 23.0416 27.0376 22.9213C27.0802 22.8009 27.0978 22.6732 27.0894 22.5458C27.1009 22.4174 27.0854 22.288 27.0441 22.1659C27.0027 22.0439 26.9362 21.9318 26.8491 21.8369C26.7619 21.7419 26.6558 21.6662 26.5377 21.6146C26.4196 21.563 26.292 21.5366 26.1631 21.5371ZM20.4406 26.6695C20.3782 26.5295 20.35 26.3766 20.3583 26.2235C20.3634 26.2177 20.3698 26.213 20.3769 26.2098C20.384 26.2066 20.3917 26.205 20.3995 26.205C20.4072 26.205 20.4149 26.2066 20.422 26.2098C20.4291 26.213 20.4355 26.2177 20.4406 26.2235C20.4955 26.3745 20.6533 26.6833 20.9278 26.6833C20.9708 26.6882 21.0144 26.6838 21.0556 26.6705C21.0967 26.6571 21.1345 26.635 21.1664 26.6057C21.1983 26.5764 21.2235 26.5406 21.2404 26.5007C21.2572 26.4608 21.2653 26.4178 21.264 26.3745C21.2629 26.2832 21.235 26.1942 21.1838 26.1186C21.1325 26.0429 21.0602 25.984 20.9758 25.9491L20.8523 25.8805C20.7422 25.8301 20.6475 25.7516 20.5776 25.6527C20.5077 25.5539 20.4652 25.4384 20.4543 25.3178C20.4543 25.0296 20.6671 24.7895 21.0787 24.7895C21.2085 24.7933 21.3374 24.8117 21.463 24.8444C21.5018 24.9712 21.5226 25.1029 21.5247 25.2355C21.519 25.2415 21.5121 25.2463 21.5044 25.2496C21.4967 25.2528 21.4885 25.2545 21.4801 25.2545C21.4718 25.2545 21.4636 25.2528 21.4559 25.2496C21.4482 25.2463 21.4413 25.2415 21.4355 25.2355C21.4215 25.1419 21.3756 25.056 21.3056 24.9922C21.2356 24.9285 21.1458 24.8908 21.0513 24.8855C21.0091 24.8816 20.9666 24.8867 20.9266 24.9006C20.8866 24.9145 20.85 24.9369 20.8194 24.9662C20.7888 24.9955 20.7649 25.031 20.7493 25.0704C20.7336 25.1097 20.7266 25.152 20.7288 25.1943C20.7378 25.2723 20.7682 25.3462 20.8167 25.408C20.8651 25.4698 20.9297 25.5169 21.0033 25.5443L21.1748 25.6472C21.2873 25.6952 21.3838 25.7743 21.453 25.8751C21.5223 25.976 21.5614 26.0944 21.5659 26.2167C21.5665 26.302 21.5481 26.3864 21.5121 26.4637C21.476 26.541 21.4233 26.6094 21.3577 26.6639C21.292 26.7184 21.2151 26.7576 21.1325 26.7788C21.0498 26.7999 20.9635 26.8024 20.8798 26.7862C20.7157 26.7902 20.5538 26.7473 20.4132 26.6627M22.108 25.2629C22.108 24.9953 22.108 24.9542 21.9845 24.9404H21.8815V24.8581C22.0894 24.8428 22.2981 24.8428 22.5059 24.8581C22.7094 24.846 22.9125 24.8861 23.096 24.9747C23.1706 25.021 23.2319 25.0857 23.274 25.1627C23.3161 25.2396 23.3375 25.3262 23.3362 25.4139C23.3327 25.4926 23.3135 25.5699 23.2797 25.6411C23.2459 25.7123 23.1981 25.776 23.1393 25.8284C23.0805 25.8809 23.0117 25.921 22.9371 25.9464C22.8625 25.9719 22.7836 25.9821 22.7049 25.9765H22.6432C22.6354 25.9668 22.6311 25.9547 22.6311 25.9422C22.6311 25.9298 22.6354 25.9177 22.6432 25.9079C22.7511 25.8863 22.8469 25.8249 22.9117 25.7359C22.9765 25.647 23.0056 25.537 22.9931 25.4276C22.9989 25.3711 22.9927 25.314 22.975 25.26C22.9572 25.206 22.9283 25.1564 22.8901 25.1143C22.852 25.0723 22.8053 25.0387 22.7533 25.0159C22.7013 24.993 22.6451 24.9813 22.5883 24.9816C22.4511 24.9816 22.4511 24.9816 22.4511 25.1051V26.3745C22.4511 26.6833 22.4511 26.697 22.602 26.7107H22.7049V26.7931H21.9021V26.7107H21.957C22.0874 26.7107 22.1148 26.7107 22.1148 26.3745L22.108 25.2629ZM23.7753 26.3265C23.7753 26.6352 23.7753 26.649 23.6175 26.6627H23.5077V26.745H24.88C24.9402 26.6118 24.9818 26.471 25.0035 26.3265C24.99 26.3153 24.973 26.3092 24.9555 26.3092C24.938 26.3092 24.921 26.3153 24.9075 26.3265C24.8114 26.5598 24.784 26.6421 24.4272 26.6352C24.187 26.6352 24.139 26.6352 24.1047 26.5735C24.0593 26.4798 24.0426 26.3747 24.0567 26.2716V25.9491C24.0567 25.8736 24.0567 25.8667 24.1253 25.8667H24.2625C24.5095 25.8667 24.5575 25.8667 24.5781 25.9971V26.1138H24.6742C24.6879 26.1138 24.6742 25.9216 24.6742 25.805V25.5237C24.6742 25.4482 24.6056 25.5237 24.5781 25.5237V25.6197C24.5781 25.7501 24.5095 25.7501 24.2625 25.7501H24.1253C24.0635 25.7501 24.0567 25.7501 24.0567 25.6746V25.0845C24.0567 24.9199 24.0567 24.913 24.1802 24.913H24.3723C24.4451 24.9021 24.5191 24.9021 24.5919 24.913C24.6879 24.913 24.7291 25.0091 24.7702 25.1737H24.8594C24.8594 25.0502 24.8594 24.8169 24.8183 24.7689H23.5763V24.8581H23.6244C23.7547 24.8581 23.7822 24.8581 23.7822 25.1943L23.7753 26.3265ZM25.3878 26.6695C25.3221 26.5306 25.2937 26.3768 25.3055 26.2235H25.3946C25.4495 26.3745 25.5936 26.6833 25.875 26.6833C25.9177 26.6883 25.961 26.684 26.0018 26.6706C26.0427 26.6571 26.0801 26.6349 26.1115 26.6055C26.1429 26.5761 26.1674 26.5402 26.1835 26.5003C26.1995 26.4604 26.2066 26.4174 26.2043 26.3745C26.2029 26.2841 26.1757 26.1961 26.1258 26.1207C26.076 26.0453 26.0056 25.9857 25.923 25.9491L25.7995 25.8805C25.6894 25.8301 25.5946 25.7516 25.5247 25.6527C25.4548 25.5539 25.4123 25.4384 25.4015 25.3178C25.4015 25.0296 25.6074 24.7895 26.019 24.7895C26.1511 24.7928 26.2823 24.8113 26.4102 24.8444C26.4463 24.9716 26.4648 25.1032 26.465 25.2355H26.3758C26.3633 25.1424 26.3188 25.0567 26.2499 24.9928C26.1811 24.929 26.0922 24.8911 25.9985 24.8855C25.9563 24.8816 25.9138 24.8867 25.8737 24.9006C25.8337 24.9145 25.7972 24.9369 25.7666 24.9662C25.736 24.9955 25.7121 25.031 25.6964 25.0704C25.6808 25.1097 25.6738 25.152 25.676 25.1943C25.6844 25.2715 25.7138 25.3449 25.7609 25.4066C25.8081 25.4683 25.8713 25.5159 25.9436 25.5443L26.122 25.6472C26.2337 25.6956 26.3292 25.7749 26.3973 25.8758C26.4654 25.9767 26.5032 26.095 26.5062 26.2167C26.5059 26.2986 26.4882 26.3795 26.4542 26.454C26.4202 26.5285 26.3708 26.5949 26.3091 26.6488C26.2474 26.7027 26.1749 26.7428 26.0965 26.7665C26.0181 26.7902 25.9356 26.7969 25.8544 26.7862C25.6903 26.7902 25.5284 26.7473 25.3878 26.6627" fill="#555555"/>
<path d="M18.5948 0.814453H0V17.7213C0 33.839 10.2443 42.4708 18.5948 47.1778C26.9521 42.4708 37.1964 33.839 37.1964 17.7213V0.814453H18.5948ZM18.5948 44.2137C17.6539 43.6796 16.738 43.1027 15.8501 42.4845C16.6753 41.9695 17.6225 41.683 18.5948 41.6543C19.567 41.683 20.5142 41.9695 21.3394 42.4845C20.3925 43.1707 19.4936 43.6922 18.5948 44.2137ZM25.0515 39.5684C24.7438 39.8947 24.3442 40.1197 23.9056 40.2134C23.6784 40.2488 23.4492 40.2695 23.2194 40.2751C21.3325 40.2751 20.9071 39.143 18.6016 39.143C16.2961 39.143 15.857 40.2751 13.9769 40.2751C13.7471 40.2697 13.5179 40.249 13.2908 40.2134C12.8522 40.1197 12.4526 39.8947 12.1449 39.5684C11.2177 38.7541 10.3509 37.8735 9.55126 36.9336C11.2872 36.9336 11.7195 37.9902 13.9701 37.9902C15.8639 37.9902 16.2824 36.8512 18.5948 36.8512C20.9071 36.8512 21.3394 37.9902 23.2126 37.9902C25.47 37.9902 25.8886 36.9404 27.6314 36.9336C26.8359 37.875 25.9713 38.7557 25.0446 39.5684M34.6507 17.982C34.7319 23.8919 32.9401 29.6757 29.532 34.5046C29.0488 34.35 28.5435 34.2758 28.0362 34.285C26.1013 34.285 25.5249 35.4172 23.2332 35.4172C21.8608 35.4172 21.2364 34.7996 20.0906 34.4771V31.7325C20.0906 31.7325 19.7475 32.2128 18.6085 32.2128C17.4695 32.2128 17.1538 31.6914 17.1538 31.6914V34.436C16.008 34.7585 15.411 35.3829 14.0113 35.3829C11.7058 35.3829 11.1294 34.2438 9.20818 34.2438C8.69864 34.2342 8.19099 34.3084 7.7055 34.4634C4.28319 29.6545 2.47423 23.884 2.53877 17.982V3.35322H34.6576L34.6507 17.982Z" fill="#555555"/>
<path d="M20.0772 14.7237H26.479L28.6404 15.9725V10.8744L26.479 12.1232H20.084V7.17606L21.3397 5.00781H15.8505L17.1541 7.17606V12.1232H10.718L8.55664 10.8744V15.9725L10.718 14.7237H17.1541V17.3243C17.6699 17.388 18.171 17.5388 18.6362 17.7703C19.1012 17.538 19.6024 17.3872 20.1183 17.3243V14.7237H20.0772ZM16.1592 25.8051H16.2484C16.2484 25.7296 16.3102 25.6336 16.4268 25.6336C16.4973 25.6419 16.5652 25.6653 16.6258 25.7022C16.8591 25.8051 16.8865 25.8188 16.962 25.8188C17.0375 25.8188 17.2365 25.7228 17.2639 25.4964H17.1816C17.1816 25.6199 17.0993 25.6816 17.0032 25.6816C16.9071 25.6816 16.9346 25.6816 16.7356 25.5787C16.6406 25.524 16.5356 25.489 16.4268 25.4758C16.4268 25.4758 16.1867 25.4758 16.1386 25.7914" fill="#555555"/>
<path d="M57.5404 26.9556C57.5404 27.6417 57.5404 30.455 57.6022 30.9833C57.5119 31.0995 57.393 31.1903 57.2571 31.2469C57.1212 31.3034 56.9729 31.3237 56.8268 31.3058C56.4632 30.8255 55.7976 30.0501 54.1508 28.1701L48.792 22.0564C47.303 20.3891 46.5688 19.5177 46.1846 19.1746C46.116 19.1746 46.116 19.4285 46.116 20.643V25.0824C46.116 26.7978 46.116 28.9043 46.5277 29.5973C46.6685 29.7719 46.8459 29.9134 47.0475 30.0118C47.2491 30.1103 47.4698 30.1632 47.6941 30.1668L48.195 30.2285C48.4009 30.3932 48.3803 30.8323 48.1538 30.9147C47.303 30.8667 46.411 30.8461 45.5396 30.8461C44.6682 30.8461 43.9614 30.8461 43.1655 30.9147C43.1158 30.8738 43.0749 30.8232 43.0454 30.766C43.0158 30.7088 42.9983 30.6462 42.9938 30.5819C42.9893 30.5177 42.9979 30.4533 43.0192 30.3925C43.0405 30.3317 43.0739 30.2759 43.1175 30.2285L43.6184 30.1256C44.0575 30.0501 44.4623 29.9609 44.6339 29.5973C44.9221 28.9111 44.9221 26.8527 44.9221 25.0824V19.6755C44.9221 17.8915 44.9221 17.5278 44.1673 16.8623C43.7918 16.6458 43.3841 16.4906 42.9597 16.4025L42.6097 16.3339C42.4519 16.2036 42.4725 15.7438 42.7058 15.6478C43.5703 15.737 44.8329 15.7164 45.4092 15.7164C45.8827 15.7164 46.4316 15.7164 46.9805 15.6478C47.3785 16.6358 49.8692 19.5108 50.6652 20.3822L52.9569 22.8524C53.9244 23.9159 56.0446 26.3312 56.2779 26.4753C56.3465 26.4067 56.3465 26.29 56.3465 25.9195V21.4595C56.3465 19.7441 56.3465 17.6376 55.9074 16.9515C55.7735 16.7755 55.6014 16.6322 55.4041 16.5323C55.2068 16.4325 54.9894 16.3787 54.7684 16.3751L54.24 16.3065C54.0342 16.1555 54.0548 15.7164 54.2881 15.6203C55.1732 15.6615 56.024 15.6889 56.916 15.6889C57.808 15.6889 58.4942 15.6889 59.3244 15.6203C59.3755 15.6605 59.4174 15.711 59.4475 15.7685C59.4777 15.8261 59.4952 15.8893 59.4991 15.9542C59.503 16.019 59.4931 16.0839 59.4701 16.1446C59.4471 16.2054 59.4115 16.2605 59.3656 16.3065L58.8373 16.43C58.405 16.4917 58.0207 16.5878 57.8561 16.9515C57.5404 17.6376 57.5404 19.648 57.5404 21.4595V26.9556ZM68.8551 16.2928C72.4986 16.2928 74.0561 20.2999 74.0561 23.7512C74.0561 28.3553 71.9496 30.304 69.3423 30.304C65.4243 30.304 64.0726 25.995 64.0726 22.8387C64.0726 17.967 66.5702 16.2928 68.8757 16.2928M69.1776 15.3802C68.0947 15.3334 67.0138 15.5106 66.0025 15.9007C64.9912 16.2908 64.0714 16.8854 63.3004 17.6473C62.5295 18.4092 61.9241 19.322 61.5221 20.3286C61.1202 21.3353 60.9303 22.414 60.9643 23.4974C60.9643 27.6143 63.9354 31.2097 69.1158 31.2097C73.7268 31.2097 77.1644 27.8544 77.1644 23.3396C77.1644 19.1746 74.4198 15.3802 69.157 15.3802M84.2455 17.6651C84.2455 16.7044 84.2455 16.6633 83.6348 16.6633H82.9487C80.8491 16.6633 80.2041 16.9172 79.3807 18.7629C79.2596 18.8287 79.119 18.8489 78.9844 18.82C78.8497 18.791 78.7298 18.7148 78.6465 18.6051C79.0011 17.4772 79.2988 16.3321 79.5385 15.1743C79.5722 15.1429 79.6124 15.1192 79.6563 15.105C79.7002 15.0908 79.7466 15.0863 79.7924 15.092C79.8339 15.0876 79.8759 15.0927 79.9151 15.107C79.9543 15.1213 79.9898 15.1443 80.0188 15.1743C80.1423 15.7507 80.4579 15.7781 82.0155 15.7781H90.1327C91.2511 15.7781 91.5942 15.7095 91.8755 15.1743C91.9581 15.1288 92.0492 15.1008 92.1431 15.092C92.1985 15.0865 92.2543 15.0935 92.3066 15.1125C92.3589 15.1315 92.4062 15.162 92.445 15.2018C92.1907 16.399 92.0756 17.6216 92.102 18.8452C92.0127 18.9334 91.8959 18.9883 91.771 19.0007C91.6462 19.0132 91.5208 18.9826 91.4158 18.9139C91.1208 17.123 90.6885 16.6976 88.2389 16.6976H87.5528C86.949 16.6976 86.9284 16.7388 86.9284 17.6994V27.5594C86.9284 29.9815 87.1411 30.0501 88.2183 30.1668L89.0349 30.2491C89.1184 30.3464 89.1609 30.4725 89.1532 30.6005C89.1455 30.7286 89.0883 30.8486 88.9937 30.9353C87.6626 30.8872 86.6333 30.8667 85.6247 30.8667C84.616 30.8667 83.5662 30.8667 82.0773 30.9353C81.9856 30.8469 81.9305 30.7273 81.9229 30.6002C81.9153 30.4731 81.9557 30.3478 82.0361 30.2491L82.9967 30.1462C84.0671 30.0501 84.273 29.9815 84.273 27.5594L84.2455 17.6651ZM99.2242 17.7131C99.2242 16.6633 99.2242 16.5878 100.439 16.5878C102.429 16.5878 103.602 18.166 103.602 19.9774C103.602 22.1525 102.566 23.2504 100.322 23.2504C99.2242 23.2504 99.2242 23.2092 99.2242 22.475V17.7131ZM96.5688 27.5594C96.5688 29.9815 96.3698 30.0501 95.2926 30.1874L94.7848 30.2491C94.7393 30.2955 94.7042 30.3511 94.6817 30.4121C94.6593 30.4731 94.65 30.5382 94.6546 30.603C94.6591 30.6678 94.6773 30.731 94.7081 30.7883C94.7388 30.8455 94.7813 30.8956 94.8329 30.9353C95.8827 30.8872 96.8913 30.8667 97.9206 30.8667C98.9498 30.8667 99.979 30.8667 100.96 30.9353C101.057 30.8505 101.117 30.7307 101.126 30.6021C101.135 30.4735 101.093 30.3466 101.008 30.2491L100.507 30.1874C99.4301 30.0501 99.2242 29.9815 99.2242 27.5594V24.6295C99.2242 24.1424 99.2242 24.1218 99.9104 24.1218C100.2 24.0669 100.5 24.1142 100.759 24.2556C101.018 24.3969 101.22 24.6236 101.331 24.8971C101.88 25.7891 102.525 27.0585 103.142 28.0123C104.514 30.1462 105.729 31.0382 107.945 31.0382C108.452 31.0539 108.96 31.0055 109.455 30.8941C109.493 30.8225 109.509 30.741 109.5 30.6603C109.492 30.5795 109.459 30.5032 109.407 30.4412C108.825 30.3709 108.277 30.1324 107.829 29.7551C106.758 28.8562 105.605 26.9213 103.78 23.8267C103.691 23.6895 103.65 23.5042 103.78 23.4356C104.906 22.9759 106.525 21.9261 106.525 19.8196C106.546 19.1285 106.366 18.4461 106.008 17.8545C105.651 17.2629 105.129 16.7873 104.508 16.4849C103.148 15.8799 101.665 15.6026 100.178 15.6752C98.3048 15.6752 96.3561 15.7438 94.9152 15.8811C94.8342 15.9675 94.7891 16.0816 94.7891 16.2001C94.7891 16.3186 94.8342 16.4327 94.9152 16.5192L95.5053 16.5878C96.5826 16.7044 96.6031 16.9789 96.6031 19.1746L96.5688 27.5594ZM113.338 19.0442C113.338 16.6152 113.133 16.5398 112.055 16.3888L111.692 16.3339C111.541 16.183 111.554 15.7644 111.74 15.6478C112.172 15.6478 112.652 15.6889 113.16 15.6889H119.061C120.529 15.6889 121.86 15.6889 122.155 15.6203C122.245 16.0114 122.382 17.816 122.519 18.7972C122.423 18.9893 121.97 19.0305 121.785 18.8933C121.421 17.5621 121.099 16.9926 120.344 16.8348C119.745 16.6856 119.129 16.6186 118.512 16.6358H116.982C115.994 16.6358 115.994 16.677 115.994 18.0081V21.878C115.994 22.475 115.994 22.4956 116.55 22.4956H117.641C119.637 22.4956 120.028 22.4956 120.186 21.4869L120.344 20.7116C120.529 20.5469 120.962 20.5469 121.078 20.7116C121.078 21.3291 121.016 22.1525 121.016 23.0033C121.016 23.8542 121.058 24.6776 121.078 25.4049C120.971 25.4805 120.843 25.521 120.711 25.521C120.58 25.521 120.452 25.4805 120.344 25.4049L120.186 24.4923C120.028 23.5317 119.637 23.4836 117.641 23.4836H116.55C116.014 23.4836 115.994 23.5317 115.994 24.1012V27.0105C115.994 28.1769 116.035 29.0003 116.385 29.3914C116.735 29.7825 117.071 29.8923 118.972 29.8923C121.874 29.9403 122.403 29.2748 123.178 27.4222C123.294 27.3475 123.434 27.3194 123.57 27.3436C123.707 27.3677 123.829 27.4424 123.912 27.5525C123.728 28.6966 123.405 29.8141 122.951 30.8804C122.451 30.8804 121.716 30.8323 120.756 30.8323H114.718C113.716 30.8323 112.316 30.8323 111.287 30.901C111.192 30.8143 111.135 30.6943 111.127 30.5662C111.12 30.4382 111.162 30.3121 111.246 30.2148L112.083 30.1325C113.16 30.0158 113.366 29.9472 113.366 27.5251L113.338 19.0442ZM136.482 18.6051C136.482 17.5278 136.482 17.0475 136.668 16.9172C137.246 16.6575 137.88 16.5444 138.513 16.5878C142.342 16.5878 144.977 18.7904 144.977 23.319C144.977 27.1889 143.145 30.0707 139.076 30.0707C136.64 30.0707 136.482 28.8837 136.482 26.64V18.6051ZM133.8 27.5594C133.8 29.9815 133.601 30.0501 132.516 30.1874L132.016 30.2491C131.858 30.4138 131.878 30.8255 132.064 30.9353C133.065 30.8872 134.122 30.8667 134.966 30.8667C135.398 30.8667 135.885 30.8667 136.434 30.9353C136.983 31.0039 137.601 30.997 138.287 30.997C140.24 31.0796 142.186 30.7037 143.968 29.8992C145.208 29.3046 146.254 28.3696 146.983 27.2033C147.712 26.037 148.094 24.6874 148.085 23.3121C148.139 21.8161 147.711 20.3424 146.865 19.1075C146.019 17.8725 144.799 16.9413 143.385 16.4506C141.651 15.8592 139.823 15.594 137.992 15.6684C135.748 15.6684 133.875 15.737 132.269 15.8742C132.187 15.9599 132.141 16.0743 132.141 16.1933C132.141 16.3123 132.187 16.4266 132.269 16.5123L132.75 16.5604C133.827 16.6976 133.848 16.972 133.848 19.1677L133.8 27.5594ZM154.103 24.211C153.554 24.211 153.485 24.211 153.732 23.5248L154.693 20.842C155.111 19.7647 155.29 19.1952 155.379 19.0374H155.42C155.696 19.6153 155.912 20.22 156.065 20.842L157.033 23.5866C157.218 24.1286 157.122 24.1767 156.484 24.1767L154.103 24.211ZM156.779 25.2402C157.424 25.2402 157.465 25.2402 157.719 25.8577L158.789 28.9729C159.091 29.9541 159.023 30.0913 158.206 30.1874L157.691 30.2491C157.622 30.3544 157.592 30.4805 157.606 30.6058C157.62 30.731 157.676 30.8475 157.767 30.9353C158.563 30.9353 159.571 30.8667 160.553 30.8667C161.747 30.8667 162.611 30.8667 163.531 30.9353C163.615 30.8409 163.662 30.7188 163.662 30.5922C163.662 30.4656 163.615 30.3435 163.531 30.2491L163.187 30.1874C162.021 29.9815 161.904 29.8168 161.376 28.2867L158.076 18.6806C157.712 17.6513 157.389 16.5741 157.053 15.5449C157.007 15.4859 156.948 15.439 156.879 15.4079C156.811 15.3769 156.737 15.3627 156.662 15.3664C156.224 15.8545 155.676 16.2309 155.063 16.4643C155.054 17.0496 154.904 17.624 154.624 18.1385L151.482 26.2832C151.008 27.5182 150.645 28.4788 150.363 29.0689C150.02 29.8306 149.773 30.0364 149.108 30.1325L148.421 30.2354C148.338 30.3304 148.293 30.4523 148.293 30.5785C148.293 30.7046 148.338 30.8265 148.421 30.9215C149.217 30.8735 149.931 30.8529 150.679 30.8529C151.619 30.8529 152.381 30.8529 153.108 30.9215C153.202 30.8349 153.26 30.7149 153.267 30.5868C153.275 30.4587 153.233 30.3327 153.149 30.2354L152.463 30.1325C151.612 30.009 151.523 29.9403 151.983 28.5886L152.923 25.844C153.122 25.2265 153.108 25.2265 153.698 25.2265L156.779 25.2402ZM184.52 30.2491C184.753 30.3452 184.726 30.8255 184.479 30.9353C183.491 30.8872 182.599 30.8667 181.679 30.8667C180.609 30.8667 179.621 30.8667 178.619 30.9353C178.434 30.8392 178.338 30.4069 178.571 30.2491L179.189 30.1462C180.108 30.0021 180.17 29.8237 180.17 28.2593V18.907H180.122C179.504 20.1695 179.189 20.8557 178.749 21.7683L176.787 25.7685C176.005 27.3741 174.859 29.8855 174.447 30.9902C174.354 31.0351 174.252 31.0585 174.149 31.0585C174.045 31.0585 173.943 31.0351 173.85 30.9902C173.466 29.7551 172.478 27.5114 171.957 26.3655L169.898 21.9741C169.479 21.0272 168.862 19.5932 168.594 18.907H168.546C168.498 20.0323 168.457 21.8163 168.409 22.7769C168.361 24.1492 168.313 26.2077 168.313 28.0877C168.313 29.6041 168.313 29.9609 169.322 30.1462L170.076 30.2766C170.241 30.4207 170.241 30.8529 170.076 30.9627C169.226 30.9147 168.519 30.8941 167.675 30.8941C166.941 30.8941 166.117 30.8941 165.225 30.9627C165.127 30.8798 165.065 30.7624 165.051 30.6347C165.036 30.507 165.072 30.3788 165.15 30.2766L165.541 30.2354C166.639 30.0982 166.817 29.7551 166.961 28.3553C167.105 26.9556 167.195 25.4323 167.304 23.0514C167.4 21.4938 167.531 19.6206 167.531 18.1934C167.531 17.1161 167.195 16.6427 166.303 16.5055L165.52 16.3614C165.383 16.2104 165.404 15.7713 165.61 15.6752C166.296 15.7164 166.913 15.7438 167.764 15.7438C168.615 15.7438 169.363 15.7438 170.214 15.6752C170.393 17.0093 170.818 18.2983 171.469 19.4765L173.994 24.7599C174.173 25.1441 174.77 26.2969 175.065 26.8183C175.428 26.1322 175.751 25.5147 176.259 24.4443L178.399 20.046C179.165 18.657 179.783 17.1922 180.245 15.6752C180.87 15.7164 181.618 15.7438 182.132 15.7438C183.093 15.7438 183.896 15.7438 184.534 15.6752C184.599 15.7023 184.656 15.7465 184.698 15.8033C184.74 15.8601 184.766 15.9273 184.773 15.9978C184.78 16.0682 184.768 16.1392 184.738 16.2032C184.708 16.2673 184.661 16.3219 184.602 16.3614L183.848 16.4849C182.846 16.6152 182.612 17.0064 182.612 18.2208C182.612 21.6104 182.654 25 182.818 28.3828C182.894 29.9129 183.141 30.0776 183.868 30.1736L184.52 30.2491ZM189.419 19.0442C189.419 16.6152 189.213 16.5398 188.136 16.3888L187.772 16.3339C187.615 16.183 187.635 15.7644 187.814 15.6478C188.246 15.6478 188.733 15.6889 189.234 15.6889H195.142C196.603 15.6889 197.934 15.6889 198.229 15.6203C198.325 16.0114 198.463 17.816 198.6 18.7972C198.504 18.9893 198.051 19.0305 197.859 18.8933C197.502 17.5621 197.173 16.9926 196.425 16.8348C195.826 16.6856 195.21 16.6186 194.593 16.6358H193.056C192.075 16.6358 192.075 16.677 192.075 18.0081V21.878C192.075 22.475 192.075 22.4956 192.623 22.4956H193.721C195.718 22.4956 196.102 22.4956 196.267 21.4869L196.425 20.7116C196.527 20.6268 196.656 20.5804 196.788 20.5804C196.921 20.5804 197.05 20.6268 197.152 20.7116C197.152 21.3291 197.083 22.1525 197.083 23.0033C197.083 23.8542 197.125 24.6776 197.152 25.4049C197.046 25.4809 196.919 25.5217 196.788 25.5217C196.658 25.5217 196.531 25.4809 196.425 25.4049L196.239 24.5335C196.075 23.5728 195.691 23.5248 193.694 23.5248H192.596C192.068 23.5248 192.047 23.5728 192.047 24.1424V27.0516C192.047 28.2181 192.095 29.0415 192.431 29.4326C192.768 29.8237 193.117 29.9335 195.025 29.9335C197.927 29.9815 198.456 29.3159 199.238 27.4633C199.354 27.3886 199.494 27.3606 199.631 27.3847C199.767 27.4089 199.889 27.4835 199.972 27.5937C199.779 28.7367 199.455 29.8534 199.005 30.9215C198.497 30.9215 197.77 30.8735 196.809 30.8735H190.75C189.742 30.8735 188.342 30.8735 187.319 30.9421C187.227 30.8546 187.17 30.7355 187.162 30.6084C187.153 30.4813 187.192 30.3555 187.271 30.256L188.122 30.1736C189.2 30.057 189.405 29.9884 189.405 27.5663L189.419 19.0442ZM44.1193 3.01569C44.1193 1.58849 44.0163 1.54732 43.1449 1.3552L42.8499 1.3003C42.7058 1.19052 42.7264 0.840582 42.8979 0.778828C43.5841 0.813136 44.2702 0.840582 44.9083 0.840582C45.5465 0.840582 46.212 0.840582 47.0217 0.778828C47.1864 0.840582 47.207 1.19052 47.0217 1.3003L46.658 1.3552C45.766 1.50615 45.6837 1.58849 45.6837 3.01569V5.9387C45.6837 7.99716 46.3698 9.41064 48.3803 9.41064C50.2398 9.41064 51.0494 8.00402 51.0494 5.97987V4.0312C51.0494 1.97274 50.9328 1.4787 50.0339 1.3552L49.6016 1.3003C49.5674 1.26467 49.5411 1.22219 49.5245 1.17565C49.5078 1.12912 49.5012 1.07959 49.5051 1.03032C49.509 0.981058 49.5233 0.933176 49.547 0.889828C49.5708 0.846481 49.6034 0.808651 49.6428 0.778828C50.3289 0.813136 50.7818 0.840582 51.3856 0.840582C51.9894 0.840582 52.4423 0.840582 53.101 0.778828C53.1387 0.811036 53.1689 0.851021 53.1896 0.896032C53.2104 0.941042 53.2211 0.99001 53.2211 1.03957C53.2211 1.08912 53.2104 1.13809 53.1896 1.1831C53.1689 1.22811 53.1387 1.2681 53.101 1.3003L52.4835 1.3552C51.9414 1.41695 51.7973 1.9796 51.7973 4.0312V6.08966C51.7973 8.73821 50.5691 10.1242 47.9343 10.1242C46.8789 10.2204 45.8264 9.91129 44.9907 9.25968C44.3731 8.64215 44.1055 7.68839 44.1055 6.33667L44.1193 3.01569ZM66.8721 4.0312C66.8721 1.97274 66.7486 1.43754 65.9801 1.3552L65.294 1.3003C65.2597 1.26467 65.2334 1.22219 65.2168 1.17565C65.2001 1.12912 65.1936 1.07959 65.1975 1.03032C65.2013 0.981058 65.2156 0.933176 65.2393 0.889828C65.2631 0.846481 65.2957 0.808651 65.3351 0.778828C66.1036 0.813136 66.5771 0.840582 67.1877 0.840582C67.7984 0.840582 68.2444 0.840582 68.9031 0.778828C68.938 0.812719 68.9657 0.853256 68.9846 0.89804C69.0035 0.942825 69.0133 0.990949 69.0133 1.03957C69.0133 1.08818 69.0035 1.13631 68.9846 1.18109C68.9657 1.22588 68.938 1.26641 68.9031 1.3003L68.2856 1.3552C67.7435 1.41695 67.5994 1.9796 67.5994 4.0312V7.50999C67.5994 7.92169 67.5994 9.56845 67.6612 9.91839C67.6168 9.99129 67.5501 10.048 67.4711 10.0801C67.392 10.1122 67.3047 10.1181 67.222 10.0968C66.9956 9.80861 66.5771 9.37633 65.294 7.9903L62.1651 4.62815C61.376 3.80476 60.8408 3.25584 60.5732 3.03627C60.4909 3.03627 60.4909 3.2627 60.4909 3.90083V6.64544C60.4909 8.7039 60.6144 9.25968 61.376 9.32144L62.0622 9.38319C62.0986 9.41768 62.1268 9.45988 62.1448 9.5067C62.1628 9.55351 62.1701 9.60376 62.1662 9.65376C62.1622 9.70376 62.1471 9.75225 62.122 9.79566C62.0969 9.83908 62.0624 9.87632 62.021 9.90467C61.2525 9.85664 60.7722 9.83605 60.1821 9.83605C59.592 9.83605 59.1803 9.83605 58.453 9.90467C58.4163 9.87185 58.387 9.83166 58.3669 9.78673C58.3468 9.7418 58.3365 9.69314 58.3365 9.64393C58.3365 9.59472 58.3468 9.54606 58.3669 9.50113C58.387 9.4562 58.4163 9.41601 58.453 9.38319L59.0088 9.30085C59.544 9.2391 59.6949 8.67645 59.6949 6.62486V2.93335C59.6949 2.2472 59.6949 1.95901 59.2558 1.65024C59.0198 1.50577 58.7594 1.40576 58.4873 1.3552L58.1785 1.3003C58.1421 1.26582 58.1139 1.22362 58.0959 1.1768C58.0779 1.12998 58.0706 1.07973 58.0746 1.02973C58.0785 0.979733 58.0936 0.931249 58.1187 0.887835C58.1438 0.844421 58.1783 0.807176 58.2197 0.778828C59.0088 0.840582 59.592 0.840582 60.0037 0.840582C60.2976 0.84092 60.5911 0.820283 60.882 0.778828C61.4521 1.71495 62.1444 2.57101 62.9405 3.32446L64.896 5.33489C65.3145 5.78775 66.5565 7.10516 66.7486 7.24239C66.8721 7.20122 66.8721 6.90618 66.8721 6.41215V4.0312ZM75.7784 3.01569C75.7784 1.58849 75.696 1.50615 74.8109 1.3552L74.4129 1.3003C74.2688 1.19052 74.2894 0.840582 74.461 0.778828C75.2638 0.813136 75.9087 0.840582 76.5675 0.840582C77.2262 0.840582 77.878 0.840582 78.6808 0.778828C78.8455 0.840582 78.8729 1.19052 78.722 1.3003L78.3309 1.3552C77.4389 1.50615 77.3565 1.58849 77.3565 3.01569V7.65409C77.3565 9.08815 77.4389 9.16362 78.3309 9.31458L78.722 9.37633C78.7562 9.41197 78.7825 9.45445 78.7991 9.50098C78.8158 9.54752 78.8224 9.59705 78.8185 9.64631C78.8146 9.69558 78.8003 9.74346 78.7766 9.78681C78.7529 9.83015 78.7202 9.86798 78.6808 9.89781C77.8986 9.84978 77.2056 9.82919 76.5675 9.82919C75.9293 9.82919 75.2638 9.82919 74.461 9.89781C74.4211 9.86851 74.3879 9.83108 74.3635 9.788C74.3391 9.74492 74.3242 9.69716 74.3197 9.64787C74.3151 9.59859 74.3211 9.5489 74.3372 9.5021C74.3532 9.45529 74.3791 9.41242 74.4129 9.37633L74.7903 9.30085C75.6755 9.1499 75.7578 9.07442 75.7578 7.64036L75.7784 3.01569ZM85.3296 3.05686C84.7052 1.68455 84.6435 1.58849 84.1357 1.45812L83.4496 1.3003C83.4147 1.26641 83.387 1.22588 83.3681 1.18109C83.3492 1.13631 83.3394 1.08818 83.3394 1.03957C83.3394 0.990949 83.3492 0.942825 83.3681 0.89804C83.387 0.853256 83.4147 0.812719 83.4496 0.778828C83.9848 0.813136 84.6709 0.840582 85.3091 0.840582C86.0638 0.840582 86.6814 0.840582 87.3263 0.778828C87.3674 0.80875 87.4009 0.847968 87.424 0.893282C87.447 0.938596 87.4591 0.988721 87.4591 1.03957C87.4591 1.09041 87.447 1.14054 87.424 1.18585C87.4009 1.23117 87.3674 1.27038 87.3263 1.3003L86.8872 1.3552C86.352 1.43754 86.352 1.712 86.8049 2.7275L87.8272 5.01926C88.3487 6.2063 88.6986 6.97479 89.0074 7.65409C89.426 6.78267 89.7759 5.91812 90.167 5.0467C90.5581 4.17529 91.1894 2.65889 91.3952 2.05507C91.5393 1.6228 91.5119 1.4787 90.8943 1.36892L90.5718 1.3003C90.5329 1.26726 90.5024 1.22543 90.4827 1.17826C90.4631 1.1311 90.455 1.07995 90.459 1.02903C90.463 0.978113 90.4791 0.928875 90.5059 0.885375C90.5326 0.841875 90.5694 0.805357 90.613 0.778828C91.2168 0.813136 91.752 0.840582 92.3078 0.840582C92.8003 0.844878 93.2927 0.824267 93.783 0.778828C93.8289 0.801804 93.8689 0.834973 93.9 0.875794C93.9311 0.916616 93.9524 0.964007 93.9623 1.01434C93.9723 1.06467 93.9705 1.11661 93.9573 1.16618C93.9441 1.21574 93.9197 1.26162 93.886 1.3003L93.3027 1.41695C92.6852 1.54732 92.5617 1.73258 91.8961 3.1392L90.3317 6.55624C89.7073 7.88052 89.1035 9.39005 88.8565 10.0762C88.7843 10.1324 88.6937 10.1593 88.6026 10.1517C88.5166 10.1522 88.4326 10.1258 88.3624 10.0762C88.1703 9.53415 87.9439 8.86858 87.6763 8.29221L85.3296 3.05686ZM99.6977 3.01569C99.6977 1.58849 99.6153 1.51987 98.8263 1.3552L98.5381 1.3003C98.3871 1.21111 98.4214 0.861167 98.5793 0.778828C98.888 0.778828 99.2037 0.813136 99.5124 0.813136H103.451C104.364 0.813136 105.187 0.813136 105.379 0.751382C105.379 0.998397 105.503 1.97274 105.605 2.86473C105.573 2.90385 105.533 2.93604 105.488 2.95938C105.443 2.98272 105.394 2.99673 105.343 3.00057C105.293 3.00442 105.242 2.99802 105.194 2.98175C105.146 2.96548 105.101 2.93969 105.063 2.9059C105 2.55284 104.874 2.21375 104.693 1.90412C104.364 1.41009 103.43 1.41009 102.936 1.41009H102.017C101.29 1.41009 101.269 1.41009 101.269 2.09624V4.40172C101.269 4.7791 101.269 4.82027 101.66 4.82027H102.641C103.739 4.82027 103.835 4.64873 104.014 4.0312L104.123 3.64009C104.155 3.60256 104.194 3.5724 104.239 3.5517C104.283 3.53101 104.332 3.52028 104.381 3.52028C104.43 3.52028 104.478 3.53101 104.523 3.5517C104.567 3.5724 104.606 3.60256 104.638 3.64009C104.597 4.2439 104.597 4.61443 104.597 5.09473C104.597 5.57504 104.597 5.98673 104.638 6.58369C104.609 6.62249 104.572 6.65476 104.529 6.67844C104.487 6.70211 104.44 6.71668 104.391 6.7212C104.343 6.72571 104.294 6.72009 104.248 6.70469C104.202 6.68928 104.159 6.66443 104.123 6.63172L104.014 6.23375C103.842 5.61621 103.746 5.45153 102.641 5.45153H101.66C101.269 5.45153 101.269 5.51329 101.269 5.92498V7.44824C101.217 7.95638 101.297 8.46944 101.502 8.93719C101.688 9.1499 102.065 9.23224 103.238 9.23224C104.569 9.23224 105.338 9.16362 105.935 7.50999C105.973 7.47537 106.019 7.44973 106.069 7.43493C106.118 7.42013 106.171 7.41654 106.222 7.42442C106.273 7.4323 106.322 7.45145 106.365 7.48048C106.408 7.50952 106.444 7.54772 106.47 7.59233C106.388 8.38871 106.179 9.16693 105.852 9.89781C105.214 9.89781 104.611 9.84978 104.034 9.84978H100.507C99.8212 9.84978 99.2037 9.84978 98.2019 9.91839C98.0372 9.84978 98.0235 9.49984 98.1676 9.39692L98.7302 9.33516C99.6153 9.23224 99.6977 9.10873 99.6977 7.67467V3.01569ZM114.587 1.95215C114.587 1.41695 114.738 1.37578 115.5 1.37578C115.774 1.34377 116.053 1.37034 116.316 1.45374C116.58 1.53714 116.823 1.67548 117.029 1.85962C117.235 2.04376 117.4 2.26953 117.512 2.52203C117.625 2.77452 117.683 3.04801 117.682 3.32446C117.682 4.75166 116.996 5.30058 115.623 5.30058C114.608 5.30058 114.58 5.30058 114.58 4.7791L114.587 1.95215ZM113.016 7.65409C113.016 9.08815 112.94 9.12245 112.042 9.31458L111.733 9.37633C111.689 9.4058 111.653 9.44632 111.63 9.49382C111.607 9.54132 111.596 9.59413 111.6 9.64696C111.603 9.69979 111.62 9.75077 111.65 9.7948C111.679 9.83883 111.72 9.87435 111.767 9.89781C112.501 9.84978 113.139 9.82919 113.826 9.82919C114.512 9.82919 115.157 9.82919 116.028 9.89781C116.068 9.86798 116.1 9.83015 116.124 9.78681C116.148 9.74346 116.162 9.69558 116.166 9.64631C116.17 9.59705 116.163 9.54752 116.146 9.50098C116.13 9.45445 116.104 9.41197 116.069 9.37633L115.589 9.31458C114.697 9.18421 114.615 9.08815 114.615 7.65409V6.18572C114.615 5.89067 114.663 5.85636 115.198 5.85636C115.353 5.84051 115.509 5.86216 115.653 5.9195C115.798 5.97683 115.926 6.06815 116.028 6.18572C116.46 6.87187 117.023 7.75701 117.538 8.42258C118.45 9.58218 119.198 9.97328 120.44 9.97328C120.734 9.98593 121.028 9.95118 121.312 9.87036C121.355 9.82663 121.38 9.76742 121.38 9.70568C121.38 9.64395 121.355 9.58474 121.312 9.54101C120.909 9.51845 120.524 9.3669 120.214 9.10873C119.152 8.16008 118.261 7.03689 117.579 5.78775C117.544 5.74502 117.525 5.69174 117.525 5.63679C117.525 5.58185 117.544 5.52857 117.579 5.48584C118.08 5.36041 118.528 5.0761 118.854 4.6754C119.181 4.27471 119.369 3.77913 119.39 3.2627C119.39 1.06701 117.332 0.778828 115.383 0.778828C114.244 0.778828 113.085 0.813136 111.952 0.902336C111.747 0.96409 111.781 1.39637 111.952 1.41695L112.536 1.50615C113.009 1.5679 113.03 1.91784 113.03 3.2627L113.016 7.65409ZM128.091 5.60249C127.096 5.08101 126.252 4.27821 126.252 3.12547C126.252 1.61594 127.418 0.552398 129.511 0.552398C130.162 0.595564 130.808 0.701261 131.439 0.868028C131.677 1.52672 131.778 2.22737 131.734 2.92649C131.702 2.9656 131.662 2.99779 131.617 3.02113C131.572 3.04447 131.523 3.05849 131.472 3.06233C131.421 3.06617 131.37 3.05977 131.322 3.0435C131.274 3.02724 131.23 3.00144 131.192 2.96766C131.128 2.4946 130.901 2.05865 130.55 1.73446C130.2 1.41026 129.748 1.21798 129.271 1.19052C128.043 1.19052 127.583 1.87667 127.583 2.56283C127.583 3.24898 128.146 3.77046 128.955 4.20273L130.238 4.88889C130.736 5.12937 131.156 5.50416 131.452 5.97096C131.748 6.43775 131.908 6.97796 131.913 7.53058C131.913 9.14304 130.588 10.1517 128.537 10.1517C127.696 10.1767 126.865 9.95487 126.149 9.51356C125.835 8.84766 125.689 8.115 125.723 7.37962C125.748 7.33187 125.785 7.29121 125.83 7.26152C125.874 7.23182 125.926 7.21407 125.98 7.20995C126.033 7.20583 126.087 7.21547 126.136 7.23796C126.185 7.26045 126.227 7.29504 126.259 7.33846C126.416 8.08636 127.329 9.56159 128.729 9.56159C129.786 9.56159 130.465 9.01267 130.465 8.05892C130.465 7.37276 130.197 6.68661 129.017 6.1171L128.091 5.60249ZM138.932 3.01569C138.932 1.58849 138.843 1.50615 137.951 1.3552L137.566 1.3003C137.416 1.19052 137.443 0.840582 137.566 0.778828C138.383 0.813136 139.021 0.840582 139.68 0.840582C140.339 0.840582 140.984 0.840582 141.8 0.778828C141.965 0.840582 141.985 1.19052 141.8 1.3003L141.409 1.3552C140.517 1.50615 140.435 1.58849 140.435 3.01569V7.65409C140.435 9.08815 140.517 9.16362 141.409 9.31458L141.8 9.37633C141.838 9.40854 141.868 9.44852 141.889 9.49353C141.909 9.53854 141.92 9.58751 141.92 9.63707C141.92 9.68663 141.909 9.73559 141.889 9.7806C141.868 9.82561 141.838 9.8656 141.8 9.89781C141.011 9.84978 140.325 9.82919 139.68 9.82919C139.035 9.82919 138.383 9.82919 137.566 9.89781C137.53 9.86498 137.5 9.8248 137.48 9.77987C137.46 9.73494 137.45 9.68628 137.45 9.63707C137.45 9.58786 137.46 9.5392 137.48 9.49427C137.5 9.44934 137.53 9.40915 137.566 9.37633L137.951 9.31458C138.843 9.16362 138.932 9.08815 138.932 7.65409V3.01569ZM150.823 1.9796C150.823 1.43754 150.823 1.43754 150.391 1.43754H149.705C148.449 1.43754 147.907 1.5679 147.406 2.98824C147.367 3.01859 147.322 3.04031 147.274 3.05198C147.226 3.06364 147.176 3.06497 147.127 3.0559C147.078 3.04682 147.032 3.02753 146.992 2.99931C146.951 2.97109 146.917 2.93458 146.891 2.89218C147.118 2.00018 147.351 0.96409 147.454 0.442613C147.507 0.402528 147.572 0.380859 147.639 0.380859C147.706 0.380859 147.771 0.402528 147.824 0.442613C147.824 0.861167 148.14 0.840582 148.964 0.840582H154.727C155.496 0.840582 155.64 0.840582 155.804 0.442613C155.864 0.404991 155.935 0.3905 156.005 0.401878C156.074 0.413257 156.137 0.449718 156.182 0.504367C155.998 1.30007 155.926 2.11772 155.969 2.93335C155.938 2.97197 155.899 3.00314 155.855 3.02457C155.81 3.04599 155.761 3.05712 155.712 3.05712C155.662 3.05712 155.614 3.04599 155.569 3.02457C155.525 3.00314 155.485 2.97197 155.455 2.93335C155.31 1.56104 154.768 1.41695 153.526 1.41695H152.84C152.442 1.41695 152.381 1.41695 152.381 1.95901V7.65409C152.381 9.08815 152.47 9.21165 153.362 9.31458L153.918 9.37633C153.952 9.41197 153.978 9.45445 153.995 9.50098C154.011 9.54752 154.018 9.59705 154.014 9.64631C154.01 9.69558 153.996 9.74346 153.972 9.78681C153.948 9.83015 153.916 9.86798 153.876 9.89781C153.019 9.84978 152.243 9.82919 151.598 9.82919C150.953 9.82919 150.185 9.82919 149.32 9.89781C149.28 9.86869 149.246 9.83113 149.222 9.78776C149.198 9.74438 149.183 9.69621 149.179 9.6466C149.175 9.59698 149.182 9.54711 149.199 9.50044C149.217 9.45377 149.244 9.41142 149.279 9.37633L149.835 9.31458C150.727 9.21165 150.809 9.08815 150.809 7.65409L150.823 1.9796ZM164.477 7.07772C164.483 6.44065 164.281 5.81917 163.901 5.30744L162.385 2.5148C161.952 1.68455 161.747 1.50615 161.204 1.39637L160.669 1.3003C160.636 1.26376 160.61 1.22051 160.595 1.17343C160.579 1.12635 160.574 1.0765 160.579 1.0272C160.584 0.977891 160.6 0.930252 160.625 0.887433C160.65 0.844615 160.684 0.807596 160.724 0.778828C161.41 0.813136 161.884 0.840582 162.632 0.840582C163.256 0.840582 163.73 0.840582 164.402 0.778828C164.444 0.80779 164.479 0.84668 164.503 0.89212C164.527 0.93756 164.54 0.988175 164.54 1.03957C164.54 1.09096 164.527 1.14157 164.503 1.18701C164.479 1.23245 164.444 1.27134 164.402 1.3003L164.114 1.3552C163.654 1.45812 163.592 1.58849 163.929 2.22661L164.697 3.69498C165.006 4.31938 165.315 4.88203 165.623 5.41723C165.953 4.85458 166.268 4.36055 166.618 3.69498L167.448 2.18544C167.764 1.60907 167.798 1.41695 167.304 1.3552L166.872 1.3003C166.828 1.27029 166.793 1.22928 166.771 1.18142C166.748 1.13356 166.738 1.08054 166.742 1.02767C166.746 0.974812 166.764 0.923982 166.794 0.880298C166.824 0.836613 166.865 0.801617 166.913 0.778828C167.538 0.813136 168.011 0.840582 168.485 0.840582C168.958 0.840582 169.377 0.840582 169.953 0.778828C169.995 0.806618 170.03 0.843432 170.056 0.886564C170.081 0.929697 170.097 0.978051 170.102 1.02807C170.106 1.0781 170.1 1.12851 170.082 1.17562C170.065 1.22273 170.037 1.26534 170.001 1.3003L169.507 1.39637C168.862 1.51987 168.752 1.65024 168.135 2.68633L166.852 4.7448C166.097 5.9387 166.049 6.14455 166.049 6.74836V7.85993C166.049 9.08815 166.131 9.23224 167.023 9.31458L167.545 9.37633C167.577 9.4129 167.602 9.45588 167.618 9.50255C167.633 9.54923 167.639 9.5986 167.634 9.64756C167.63 9.69653 167.615 9.74404 167.592 9.7871C167.568 9.83016 167.536 9.86785 167.497 9.89781C166.591 9.84978 165.898 9.82919 165.26 9.82919C164.622 9.82919 163.949 9.82919 163.023 9.89781C162.983 9.86851 162.95 9.83108 162.925 9.788C162.901 9.74492 162.886 9.69716 162.881 9.64787C162.877 9.59859 162.883 9.5489 162.899 9.5021C162.915 9.45529 162.941 9.41242 162.975 9.37633L163.503 9.31458C164.395 9.21165 164.471 9.08815 164.471 7.85993L164.477 7.07772ZM182.221 1.06701C184.499 1.06701 185.556 3.30387 185.556 5.52015C185.556 8.35396 184.04 9.43808 182.468 9.43808C180.06 9.43808 179.093 7.13947 179.093 4.99867C179.086 2.09624 180.726 1.06701 182.221 1.06701ZM182.365 0.463198C179.36 0.463198 177.254 2.57655 177.254 5.33489C177.254 7.94913 179.154 10.035 182.365 10.035C185.288 10.035 187.409 7.97658 187.409 5.23196C187.409 2.70692 185.7 0.490644 182.365 0.490644M192.644 3.00883C192.644 1.58163 192.541 1.54046 191.773 1.3552L191.526 1.29344C191.382 1.18366 191.402 0.833721 191.567 0.771967C191.848 0.771967 192.143 0.813136 192.459 0.813136H196.308C197.228 0.813136 198.01 0.813136 198.305 0.751382C198.305 0.998397 198.339 1.97274 198.408 2.8716C198.378 2.91689 198.337 2.95404 198.289 2.97974C198.241 3.00544 198.188 3.01889 198.133 3.01889C198.079 3.01889 198.025 3.00544 197.978 2.97974C197.93 2.95404 197.889 2.91689 197.859 2.8716C197.798 2.52085 197.675 2.18385 197.495 1.87667C197.138 1.36206 196.226 1.3895 195.732 1.3895H194.922C194.284 1.3895 194.236 1.3895 194.236 2.07566V4.4772C194.236 4.86144 194.236 4.89575 194.627 4.89575H195.745C196.843 4.89575 196.953 4.72421 197.118 4.11353L197.228 3.71557C197.262 3.6816 197.303 3.65547 197.349 3.63894C197.394 3.6224 197.443 3.61587 197.491 3.61978C197.539 3.62369 197.586 3.63794 197.628 3.66158C197.67 3.68521 197.707 3.71767 197.735 3.75673V6.70033C197.707 6.7394 197.67 6.77185 197.628 6.79549C197.586 6.81912 197.539 6.83338 197.491 6.83729C197.443 6.8412 197.394 6.83466 197.349 6.81813C197.303 6.8016 197.262 6.77546 197.228 6.7415L197.118 6.35039C196.96 5.72599 196.85 5.56132 195.745 5.56132H194.627C194.236 5.56132 194.236 5.62307 194.236 6.03476V7.65409C194.236 9.08815 194.318 9.22538 195.21 9.30772L195.848 9.37633C195.883 9.41197 195.909 9.45445 195.926 9.50098C195.942 9.54752 195.949 9.59705 195.945 9.64631C195.941 9.69558 195.927 9.74346 195.903 9.78681C195.879 9.83015 195.847 9.86798 195.807 9.89781C194.764 9.84978 194.085 9.82919 193.447 9.82919C192.809 9.82919 192.143 9.82919 191.333 9.89781C191.294 9.86851 191.26 9.83108 191.236 9.788C191.212 9.74492 191.197 9.69716 191.192 9.64787C191.188 9.59859 191.194 9.5489 191.21 9.5021C191.226 9.45529 191.252 9.41242 191.285 9.37633L191.683 9.30772C192.569 9.16362 192.658 9.08815 192.658 7.65409L192.644 3.00883Z" fill="#555555"/>
</g>
<defs>
<clipPath id="clip0_793_1795">
<rect width="200" height="47" fill="white" transform="translate(0 0.279297)"/>
</clipPath>
</defs>
</svg>
