<svg width="19" height="19" viewBox="0 0 19 19" fill="none" xmlns="http://www.w3.org/2000/svg">
<g clip-path="url(#clip0_793_1900)">
<path d="M18.4883 2.30078V6.30028C18.4883 6.97094 17.677 7.29966 17.2079 6.83063L16.0921 5.71472L8.482 13.3248C8.18909 13.6177 7.71425 13.6177 7.42134 13.3248L6.71425 12.6177C6.42134 12.3248 6.42134 11.8499 6.71425 11.5571L14.3244 3.94691L13.2087 2.83113C12.7377 2.36016 13.0713 1.55078 13.739 1.55078H17.7383C18.1525 1.55078 18.4883 1.88656 18.4883 2.30078ZM13.2079 10.0131L12.7079 10.5131C12.6383 10.5827 12.583 10.6654 12.5454 10.7564C12.5077 10.8474 12.4883 10.9449 12.4883 11.0434V15.5508H2.48828V5.55078H10.7383C10.9372 5.55077 11.1279 5.47176 11.2686 5.33113L11.7686 4.83113C12.2411 4.35863 11.9064 3.55078 11.2383 3.55078H1.98828C1.15984 3.55078 0.488281 4.22234 0.488281 5.05078V16.0508C0.488281 16.8792 1.15984 17.5508 1.98828 17.5508H12.9883C13.8167 17.5508 14.4883 16.8792 14.4883 16.0508V10.5434C14.4883 9.87522 13.6804 9.54059 13.2079 10.0131Z" fill="#C1CDDD"/>
</g>
<defs>
<clipPath id="clip0_793_1900">
<rect width="18" height="18" fill="white" transform="translate(0.488281 0.550781)"/>
</clipPath>
</defs>
</svg>
